<svg width="615" height="790" viewBox="0 0 615 790" fill="none" xmlns="http://www.w3.org/2000/svg">
<path d="M486.889 185.312L483.09 171.195L497.206 167.397L501.005 181.513L486.889 185.312ZM151.627 275.523L137.511 279.321L133.713 265.205L147.829 261.407L151.627 275.523ZM247.46 631.673L243.661 617.557L257.778 613.759L261.576 627.875L247.46 631.673ZM80.639 616.008L66.5227 619.806L80.639 616.008ZM37.1736 454.473L51.2899 450.675L37.1736 454.473ZM173.607 357.209L187.724 353.41L191.522 367.527L177.406 371.325L173.607 357.209ZM195.17 437.344L191.372 423.228L205.488 419.429L209.286 433.546L195.17 437.344ZM226.841 555.047L240.957 551.248L244.756 565.365L230.64 569.163L226.841 555.047ZM490.687 199.428L155.426 289.639L147.829 261.407L483.09 171.195L490.687 199.428ZM575.391 570.481L472.772 189.11L501.005 181.513L603.623 562.885L575.391 570.481ZM544.437 624.225C567.826 617.932 581.684 593.87 575.391 570.481L603.623 562.885C614.112 601.866 591.015 641.969 552.034 652.458L544.437 624.225ZM322.106 684.05L544.437 624.225L552.034 652.458L329.703 712.282L322.106 684.05ZM268.362 653.096C274.656 676.485 298.718 690.343 322.106 684.05L329.703 712.282C290.722 722.771 250.619 699.674 240.13 660.693L268.362 653.096ZM261.576 627.875L268.362 653.096L240.13 660.693L233.343 635.472L261.576 627.875ZM251.258 645.79L156.096 671.396L148.499 643.163L243.661 617.557L251.258 645.79ZM156.096 671.396C117.115 681.885 77.0116 658.787 66.5227 619.806L94.7552 612.21C101.049 635.598 125.111 649.457 148.499 643.163L156.096 671.396ZM66.5227 619.806L23.0574 458.272L51.2899 450.675L94.7552 612.21L66.5227 619.806ZM23.0574 458.272C12.5685 419.291 35.6659 379.187 74.6468 368.699L82.2436 396.931C58.855 403.224 44.9965 427.286 51.2899 450.675L23.0574 458.272ZM74.6468 368.699L169.809 343.093L177.406 371.325L82.2436 396.931L74.6468 368.699ZM165.744 271.724L187.724 353.41L159.491 361.007L137.511 279.321L165.744 271.724ZM209.286 433.546L240.957 551.248L212.725 558.845L181.054 441.142L209.286 433.546ZM152.054 433.807L191.372 423.228L198.968 451.46L159.65 462.04L152.054 433.807ZM117.661 493.523C110.668 467.535 126.066 440.8 152.054 433.807L159.65 462.04C149.255 464.837 143.096 475.531 145.893 485.926L117.661 493.523ZM131.606 545.35L117.661 493.523L145.893 485.926L159.839 537.753L131.606 545.35ZM191.322 579.743C165.334 586.735 138.599 571.337 131.606 545.35L159.839 537.753C162.636 548.148 173.33 554.307 183.725 551.51L191.322 579.743ZM230.64 569.163L191.322 579.743L183.725 551.51L223.043 540.931L230.64 569.163Z" fill="white"/>
<path fill-rule="evenodd" clip-rule="evenodd" d="M199.019 345.589C212.007 346.441 229.043 355.077 232.506 385.339L249.879 449.902C253.307 458.838 260.519 473.92 280.17 468.632C289.34 466.165 303.456 462.366 300.01 436.413L274.054 339.948C270.403 331.427 268.507 309.042 292.034 302.711C299.562 300.414 317.499 300.4 324.273 320.733L335.923 364.028C340.215 379.979 358.508 384.995 369.399 379.457C376.255 378.699 389.441 369.177 387.574 350.13L377.355 312.152C376.041 306.26 379.873 298.629 398.595 294.218L451.385 280.013L504.175 265.809C516.472 257.44 534.759 241.76 540.733 222.475C550.9 204.454 554.278 182.588 548.477 161.028C536.738 117.4 491.854 91.5497 448.226 103.289C442.148 104.924 436.415 107.203 431.08 110.032C399.086 65.9561 342.12 43.8672 286.393 58.8621C241.822 70.855 208.47 103.764 194.06 144.18C182.232 143.024 169.998 143.942 157.843 147.213C103.728 161.774 71.6631 217.447 86.2243 271.562C94.8195 303.506 117.739 327.766 146.208 339.288C157.557 344.312 171.118 347.74 185.745 346.679C190.144 346.609 194.576 346.25 199.019 345.589Z" fill="white"/>
<circle cx="175.497" cy="91.0583" r="24.3639" fill="white"/>
<circle cx="115.806" cy="93.3127" r="14.6184" fill="white"/>
<circle cx="447.155" cy="47.203" r="19.4911" fill="white"/>
</svg>
